<svg xmlns="http://www.w3.org/2000/svg" xmlns:xlink="http://www.w3.org/1999/xlink" width="100" zoomAndPan="magnify" viewBox="0 0 75 74.999997" height="100" preserveAspectRatio="xMidYMid meet" version="1.0"><defs><clipPath id="86171dd327"><path d="M 21.914062 21.914062 L 53.414062 21.914062 L 53.414062 53.414062 L 21.914062 53.414062 Z M 21.914062 21.914062 " clip-rule="nonzero"/></clipPath></defs><g clip-path="url(#86171dd327)"><path fill="#ff3131" d="M 53.085938 37.5 C 53.085938 46.105469 46.105469 53.085938 37.5 53.085938 C 28.890625 53.085938 21.914062 46.105469 21.914062 37.5 C 21.914062 28.890625 28.890625 21.914062 37.5 21.914062 C 46.105469 21.914062 53.085938 28.890625 53.085938 37.5 " fill-opacity="1" fill-rule="nonzero"/></g><path fill="#ffffff" d="M 44.78125 45.34375 C 44.753906 45.402344 43.644531 44.984375 43.226562 44.84375 C 43.226562 44.84375 41.582031 46.066406 41.539062 46.007812 C 41.496094 45.953125 42.730469 44.742188 42.96875 44.5 C 42.804688 42.5625 42.058594 33.734375 42.191406 33.714844 C 42.328125 33.695312 43.214844 42.671875 43.402344 44.5 C 43.867188 44.765625 44.804688 45.289062 44.78125 45.34375 Z M 40.015625 31.894531 L 38.65625 31.894531 C 38.65625 30.953125 38.34375 30.015625 37.828125 29.285156 C 38.304688 28.757812 38.910156 28.566406 39.257812 28.566406 C 40.5 28.566406 41.675781 30.183594 41.675781 31.894531 Z M 33.925781 29.5625 C 34.398438 28.929688 34.992188 28.566406 35.550781 28.566406 C 36.050781 28.566406 36.539062 28.828125 36.945312 29.253906 C 36.308594 30.175781 36.152344 31.171875 36.152344 31.894531 L 33.605469 31.894531 C 33.605469 31.894531 33.40625 31.894531 33.136719 31.894531 C 33.136719 31.09375 33.433594 30.222656 33.925781 29.5625 Z M 30.546875 45.523438 C 30.464844 45.515625 30.375 45.402344 30.371094 45.25 L 31.265625 32.886719 L 31.265625 32.851562 C 31.269531 32.695312 31.367188 32.582031 31.449219 32.582031 L 32.445312 32.582031 L 32.445312 33.296875 C 32.3125 33.40625 32.230469 33.574219 32.230469 33.757812 C 32.230469 33.945312 32.3125 34.109375 32.445312 34.21875 C 32.550781 34.308594 32.683594 34.363281 32.832031 34.363281 C 32.945312 34.363281 33.046875 34.332031 33.136719 34.28125 C 33.316406 34.175781 33.4375 33.980469 33.4375 33.757812 C 33.4375 33.535156 33.316406 33.339844 33.136719 33.234375 L 33.136719 32.582031 L 37.96875 32.582031 L 37.96875 33.234375 C 37.785156 33.339844 37.664062 33.535156 37.664062 33.757812 C 37.664062 33.980469 37.785156 34.175781 37.96875 34.28125 C 38.054688 34.332031 38.160156 34.363281 38.269531 34.363281 C 38.417969 34.363281 38.554688 34.308594 38.65625 34.21875 C 38.789062 34.109375 38.871094 33.945312 38.871094 33.757812 C 38.871094 33.574219 38.789062 33.40625 38.65625 33.296875 L 38.65625 32.582031 L 40.148438 32.582031 L 40.714844 46.339844 Z M 37.96875 31.894531 L 36.84375 31.894531 C 36.84375 31.410156 36.933594 30.53125 37.414062 29.875 C 37.753906 30.453125 37.964844 31.164062 37.96875 31.894531 Z M 45.308594 45.042969 L 44.085938 32.722656 C 44.039062 32.253906 43.644531 31.894531 43.167969 31.894531 L 42.367188 31.894531 C 42.363281 29.914062 40.964844 27.933594 39.257812 27.933594 C 38.726562 27.933594 38.183594 28.144531 37.414062 28.789062 C 36.894531 28.261719 36.246094 27.933594 35.550781 27.933594 C 33.84375 27.933594 32.445312 29.992188 32.445312 31.894531 C 32.257812 31.894531 32.089844 31.894531 31.972656 31.894531 L 31.449219 31.894531 C 30.976562 31.894531 30.589844 32.3125 30.578125 32.835938 L 29.683594 45.222656 C 29.671875 45.738281 30.023438 46.171875 30.488281 46.210938 L 41.003906 47.054688 C 41.277344 47.078125 41.554688 47.042969 41.816406 46.960938 L 44.664062 46.03125 C 45.085938 45.894531 45.355469 45.480469 45.308594 45.042969 " fill-opacity="1" fill-rule="nonzero"/></svg>