<svg xmlns="http://www.w3.org/2000/svg" version="1.1" xmlns:xlink="http://www.w3.org/1999/xlink" xmlns:svgjs="http://svgjs.dev/svgjs" width="100" height="100"><svg xmlns="http://www.w3.org/2000/svg" xmlns:xlink="http://www.w3.org/1999/xlink" width="100" zoomAndPan="magnify" viewBox="0 0 75 74.999997" height="100" preserveAspectRatio="xMidYMid meet" version="1.0"><defs><clipPath id="SvgjsClipPath1012"><path d="M 2.890625 2.890625 L 71.890625 2.890625 L 71.890625 71.890625 L 2.890625 71.890625 Z M 2.890625 2.890625 " clip-rule="nonzero"></path></clipPath></defs><g clip-path="url(#8386cfafb3)"><path fill="#ff3131" d="M 72.101562 37.496094 C 72.101562 56.605469 56.605469 72.101562 37.496094 72.101562 C 18.382812 72.101562 2.890625 56.605469 2.890625 37.496094 C 2.890625 18.382812 18.382812 2.890625 37.496094 2.890625 C 56.605469 2.890625 72.101562 18.382812 72.101562 37.496094 " fill-opacity="1" fill-rule="nonzero"></path></g><path fill="#ffffff" d="M 53.664062 54.914062 C 53.605469 55.042969 51.144531 54.113281 50.214844 53.804688 C 50.214844 53.804688 46.566406 56.515625 46.464844 56.390625 C 46.367188 56.269531 49.117188 53.582031 49.640625 53.039062 C 49.277344 48.738281 47.621094 29.136719 47.917969 29.09375 C 48.21875 29.054688 50.1875 48.984375 50.601562 53.039062 C 51.632812 53.632812 53.714844 54.792969 53.664062 54.914062 Z M 43.082031 25.050781 L 40.066406 25.050781 C 40.066406 22.964844 39.367188 20.878906 38.230469 19.261719 C 39.285156 18.089844 40.628906 17.667969 41.40625 17.667969 C 44.160156 17.667969 46.765625 21.253906 46.769531 25.050781 Z M 29.566406 19.871094 C 30.613281 18.472656 31.925781 17.667969 33.171875 17.667969 C 34.28125 17.667969 35.367188 18.25 36.269531 19.191406 C 34.855469 21.238281 34.507812 23.453125 34.507812 25.050781 L 28.855469 25.050781 C 28.855469 25.050781 28.40625 25.050781 27.808594 25.050781 C 27.808594 23.273438 28.464844 21.339844 29.566406 19.871094 Z M 22.0625 55.3125 C 21.878906 55.296875 21.679688 55.046875 21.675781 54.710938 L 23.65625 27.253906 L 23.660156 27.179688 C 23.667969 26.828125 23.878906 26.582031 24.066406 26.582031 L 26.277344 26.582031 L 26.277344 28.164062 C 25.984375 28.410156 25.796875 28.777344 25.796875 29.191406 C 25.796875 29.601562 25.984375 29.972656 26.277344 30.21875 C 26.507812 30.414062 26.808594 30.53125 27.136719 30.53125 C 27.382812 30.53125 27.609375 30.464844 27.808594 30.351562 C 28.210938 30.121094 28.480469 29.6875 28.480469 29.191406 C 28.480469 28.695312 28.210938 28.261719 27.808594 28.03125 L 27.808594 26.582031 L 38.535156 26.582031 L 38.535156 28.03125 C 38.132812 28.261719 37.863281 28.695312 37.863281 29.191406 C 37.863281 29.6875 38.132812 30.121094 38.535156 30.351562 C 38.734375 30.464844 38.960938 30.53125 39.207031 30.53125 C 39.535156 30.53125 39.835938 30.414062 40.066406 30.21875 C 40.359375 29.972656 40.546875 29.601562 40.546875 29.191406 C 40.546875 28.777344 40.359375 28.410156 40.066406 28.164062 L 40.066406 26.582031 L 43.382812 26.582031 L 44.636719 57.125 Z M 38.535156 25.050781 L 36.042969 25.050781 C 36.042969 23.976562 36.242188 22.03125 37.304688 20.570312 C 38.0625 21.851562 38.535156 23.429688 38.535156 25.050781 Z M 54.839844 54.246094 L 52.125 26.894531 C 52.019531 25.847656 51.136719 25.050781 50.085938 25.050781 L 48.300781 25.050781 C 48.300781 20.65625 45.195312 16.261719 41.40625 16.261719 C 40.226562 16.261719 39.015625 16.726562 37.304688 18.15625 C 36.152344 16.992188 34.71875 16.261719 33.171875 16.261719 C 29.378906 16.261719 26.277344 20.832031 26.277344 25.050781 C 25.863281 25.050781 25.488281 25.050781 25.230469 25.050781 L 24.066406 25.050781 C 23.011719 25.050781 22.152344 25.976562 22.128906 27.144531 L 20.140625 54.648438 C 20.117188 55.789062 20.902344 56.753906 21.929688 56.839844 L 45.277344 58.714844 C 45.886719 58.761719 46.503906 58.691406 47.085938 58.5 L 53.410156 56.4375 C 54.339844 56.132812 54.9375 55.222656 54.839844 54.246094 " fill-opacity="1" fill-rule="nonzero"></path></svg><style>@media (prefers-color-scheme: light) { :root { filter: none; } }
@media (prefers-color-scheme: dark) { :root { filter: none; } }
</style></svg>